<svg xmlns="http://www.w3.org/2000/svg" xmlns:lucid="lucid" width="6848" height="2656"><g lucid:page-tab-id="0_0" stroke="#000" stroke-opacity="0" fill="#0078d7"><path d="M279.4 764.1c-3.12 0-5.76 1.88-7.08 4.54H227.8c-7.56 0-13.68-6.1-13.68-13.74 0-7.65 6-13.74 13.68-13.74h6.24c.36-1.5.72-3.05 1.32-4.45.36-.46.48-1.1.84-1.55 3.12-5.47 9-9.06 15.72-9.06 6.12 0 11.4 2.96 14.64 7.33 1.92-.94 3.96-1.56 6-2.03-4.44-6.87-11.88-11.4-20.64-11.4-10.08 0-18.84 6.25-22.44 15.07v0h-1.68c-10.92.23-19.8 9.05-19.8 19.98 0 10.86 8.88 19.76 19.8 19.76h44.76c1.2 2.66 3.84 4.53 6.96 4.53 4.2 0 7.68-3.43 7.68-7.65-.24-4.14-3.6-7.57-7.8-7.57z"/><path d="M303.04 798.07c13.44 0 24.96-11.4 24.96-24.83 0-13.35-10.8-24.12-24.12-24.28-4.56-9.05-13.8-15.06-24.48-15.06-13.08 0-24 9.2-26.64 21.3-6.48.63-11.88 4.07-15.36 8.9h32.64c2.16-2.8 5.64-4.52 9.48-4.52 6.72 0 12.12 5.47 12.12 12.18 0 6.7-5.4 12.18-12.12 12.18-3.84 0-7.2-1.72-9.48-4.53h-36.36c1.44 10.24 9.72 18.67 20.4 18.67h48.96z"/></g></svg>