<svg xmlns="http://www.w3.org/2000/svg" xmlns:lucid="lucid" width="6848" height="2656"><g lucid:page-tab-id="0_0" stroke="#000" stroke-opacity="0"><path d="M1409.8 847.26l-56.48-32.3 56.47-31.17 56.47 30.52zm-46.1-32.24l46.1 26.14 45.96-26.84-45.97-24.7z" fill="#669df6"/><path d="M1409.87 907.2l-56.75-36.3 56.75-30.05 55.85 30.38zm-46.62-35.97l46.62 29.8 45.94-29.4-45.93-25z" fill="#669df6"/><path d="M1355.88 816.1l4.63-2.47 51.2 89-4.62 2.46-51.2-89z" stroke-width=".88" fill="#4285f4"/><path d="M1407.86 903.12l50.03-88.7 4.63 2.36-50.02 88.7-4.64-2.36z" stroke-width=".47" fill="#4285f4"/><path d="M1356.6 869.52l50.55-83.6 4.57 2.5-50.56 83.6-4.57-2.5z" stroke-width=".5" fill="#4285f4"/><path d="M1407.86 787.98l4.6-2.54 50.65 84.88-4.57 2.53-50.67-84.87z" stroke-width=".87" fill="#4285f4"/><path d="M1407.4 786.28h5.26v117.37h-5.26V786.28zM1355.45 815.46h5.26v56.66h-5.25v-56.66zM1458 814.94h5.27v56.66H1458v-56.66z" fill="#4285f4"/><path d="M1417.4 787c0 3.86-3.28 7-7.33 7-4.04 0-7.33-3.14-7.33-7s3.3-7 7.33-7c4.05 0 7.33 3.14 7.33 7zM1468 814.87c0 3.87-3.28 7-7.33 7-4.04 0-7.33-3.13-7.33-7 0-3.86 3.3-7 7.33-7 4.05 0 7.33 3.14 7.33 7zM1366.33 814.87c0 3.87-3.28 7-7.33 7-4.04 0-7.32-3.13-7.32-7 0-3.86 3.28-7 7.32-7 4.05 0 7.33 3.14 7.33 7zM1421.6 844.9c0 6.07-5.17 11-11.53 11-6.36 0-11.52-4.93-11.52-11s5.16-11 11.52-11c6.36 0 11.52 4.93 11.52 11zM1468 871.14c0 3.86-3.28 7-7.33 7-4.04 0-7.33-3.14-7.33-7 0-3.87 3.3-7 7.33-7 4.05 0 7.33 3.13 7.33 7zM1366.33 871.14c0 3.86-3.28 7-7.33 7-4.04 0-7.32-3.14-7.32-7 0-3.87 3.28-7 7.32-7 4.05 0 7.33 3.13 7.33 7zM1417.4 903.85c0 3.86-3.28 7-7.33 7-4.04 0-7.33-3.14-7.33-7s3.3-7 7.33-7c4.05 0 7.33 3.14 7.33 7z" fill="#aecbfa"/><path d="M1409.8 847.26l-56.48-32.3 56.47-31.17 56.47 30.52zm-46.1-32.24l46.1 26.14 45.96-26.84-45.97-24.7z" fill="#aecbfa"/><path d="M1409.87 907.2l-56.75-36.3 56.75-30.05 55.85 30.38zm-46.62-35.97l46.62 29.8 45.94-29.4-45.93-25z" fill="#aecbfa"/><path d="M1355.88 816.1l4.63-2.47 51.2 89-4.62 2.46-51.2-89z" stroke-width=".88" fill="#aecbfa"/><path d="M1407.86 903.12l50.03-88.7 4.63 2.36-50.02 88.7-4.64-2.36z" stroke-width=".47" fill="#aecbfa"/><path d="M1356.6 869.52l50.55-83.6 4.57 2.5-50.56 83.6-4.57-2.5z" stroke-width=".5" fill="#aecbfa"/><path d="M1407.86 787.98l4.6-2.54 50.65 84.88-4.57 2.53-50.67-84.87z" stroke-width=".87" fill="#aecbfa"/><path d="M1407.4 786.28h5.26v117.37h-5.26V786.28zM1355.45 815.46h5.26v56.66h-5.25v-56.66zM1458 814.94h5.27v56.66H1458v-56.66z" fill="#aecbfa"/><path d="M1417.4 787c0 3.86-3.28 7-7.33 7-4.04 0-7.33-3.14-7.33-7s3.3-7 7.33-7c4.05 0 7.33 3.14 7.33 7zM1468 814.87c0 3.87-3.28 7-7.33 7-4.04 0-7.33-3.13-7.33-7 0-3.86 3.3-7 7.33-7 4.05 0 7.33 3.14 7.33 7zM1366.33 814.87c0 3.87-3.28 7-7.33 7-4.04 0-7.32-3.13-7.32-7 0-3.86 3.28-7 7.32-7 4.05 0 7.33 3.14 7.33 7zM1421.6 844.9c0 6.07-5.17 11-11.53 11-6.36 0-11.52-4.93-11.52-11s5.16-11 11.52-11c6.36 0 11.52 4.93 11.52 11zM1468 871.14c0 3.86-3.28 7-7.33 7-4.04 0-7.33-3.14-7.33-7 0-3.87 3.3-7 7.33-7 4.05 0 7.33 3.13 7.33 7zM1366.33 871.14c0 3.86-3.28 7-7.33 7-4.04 0-7.32-3.14-7.32-7 0-3.87 3.28-7 7.32-7 4.05 0 7.33 3.13 7.33 7zM1417.4 903.85c0 3.86-3.28 7-7.33 7-4.04 0-7.33-3.14-7.33-7s3.3-7 7.33-7c4.05 0 7.33 3.14 7.33 7z" fill="#669df6"/></g></svg>