<svg version="1.1" viewBox="0.0 0.0 514.992125984252 231.71128608923885" fill="none" stroke="none" stroke-linecap="square" stroke-miterlimit="10" xmlns:xlink="http://www.w3.org/1999/xlink" xmlns="http://www.w3.org/2000/svg"><clipPath id="p.0"><path d="m0 0l514.9921 0l0 231.71129l-514.9921 0l0 -231.71129z" clip-rule="nonzero"/></clipPath><g clip-path="url(#p.0)"><path fill="#000000" fill-opacity="0.0" d="m0 0l514.9921 0l0 231.71129l-514.9921 0z" fill-rule="evenodd"/><path fill="#d9ead3" d="m0 57.66142l456.48032 0l0 172.98425l-456.48032 0z" fill-rule="evenodd"/><path fill="#adbba8" d="m456.48032 57.66142l57.661407 -57.66142l0 172.98425l-57.661407 57.661423z" fill-rule="evenodd"/><path fill="#e0eedb" d="m0 57.66142l57.66142 -57.66142l456.48032 0l-57.661407 57.66142z" fill-rule="evenodd"/><path fill="#000000" fill-opacity="0.0" d="m0 57.66142l57.66142 -57.66142l456.48032 0l0 172.98425l-57.661407 57.661423l-456.48032 0zm0 0l456.48032 0l57.661407 -57.66142m-57.661407 57.66142l0 172.98425" fill-rule="evenodd"/><path stroke="#000000" stroke-width="1.0" stroke-linejoin="round" stroke-linecap="butt" d="m0 57.66142l57.66142 -57.66142l456.48032 0l0 172.98425l-57.661407 57.661423l-456.48032 0zm0 0l456.48032 0l57.661407 -57.66142m-57.661407 57.66142l0 172.98425" fill-rule="evenodd"/></g></svg>