<svg xmlns="http://www.w3.org/2000/svg" xmlns:xlink="http://www.w3.org/1999/xlink" xmlns:lucid="lucid" width="6848" height="2656"><g transform="translate(-3392 0)" lucid:page-tab-id="0_0"><path d="M4352.45 254.18l-46.22 22.67V304l46.22-22.67v-27.15z" stroke="#000" stroke-opacity="0" fill="#4285f4"/><path d="M4278.5 213.62l-18.5 9.05z" stroke="#000" stroke-opacity="0" fill="#1e88e5"/><path d="M4333.96 231.6v22.58l18.5-9v-22.6l-18.5 9.03zM4306.23 267.8l18.5-9v-22.6l-18.5 9.03v22.58z" stroke="#000" stroke-opacity="0" fill="#4285f4"/><path d="M4278.45 213.62l-18.45 9.05 18.45 9.05 18.53-9.05-18.53-9.05zM4306.25 200l-18.5 9.04 18.5 9 27.76 13.58 18.45-9.05-46.2-22.57zM4306.23 227.14l-18.5 9.05 18.5 9.04 18.5-9.05-18.5-9.06z" stroke="#000" stroke-opacity="0" fill="#aecbfa"/><path d="M4287.74 267.6v27.15l18.5 9.25v-27.15zm13.86 27.15l-9.24-4.55v-13.35l9.24 4.55z" stroke="#000" stroke-opacity="0" fill="#669df6"/><path d="M4260 222.67l.02 58.8 18.47 9-.03-58.78-4.55-2.25v52l-9.35-4.53v-52z" fill="#669df6"/><path d="M4287.74 236.4l18.5 8.83v22.37l-18.5-8.8zm13.86 22.62v-15.6l-9.24-4.68v15.6z" stroke="#000" stroke-opacity="0" fill="#669df6"/><path d="M4306.23 200L4260 222.57v58.76l46.32 22.67 46.13-22.67v-58.66z" stroke="#000" stroke-opacity="0" stroke-width=".01" fill-opacity="0"/><use xlink:href="#a" transform="matrix(1,0,0,1,4260,309.0000000000003) translate(12.580246913580247 17.77777777777778)"/><use xlink:href="#b" transform="matrix(1,0,0,1,4260,309.0000000000003) translate(39.74074074074073 17.77777777777778)"/><defs><path fill="#3a414a" d="M205 0l-28-72H64L36 0H1l101-248h38L239 0h-34zm-38-99l-47-123c-12 45-31 82-46 123h93" id="c"/><path fill="#3a414a" d="M33 0v-248h34V0H33" id="d"/><g id="a"><use transform="matrix(0.06172839506172839,0,0,0.06172839506172839,0,0)" xlink:href="#c"/><use transform="matrix(0.06172839506172839,0,0,0.06172839506172839,14.814814814814813,0)" xlink:href="#d"/></g><path fill="#3a414a" d="M197 0v-115H63V0H30v-248h33v105h134v-105h34V0h-34" id="e"/><path fill="#3a414a" d="M84 4C-5 8 30-112 23-190h32v120c0 31 7 50 39 49 72-2 45-101 50-169h31l1 190h-30c-1-10 1-25-2-33-11 22-28 36-60 37" id="f"/><path fill="#3a414a" d="M115-194c53 0 69 39 70 98 0 66-23 100-70 100C84 3 66-7 56-30L54 0H23l1-261h32v101c10-23 28-34 59-34zm-8 174c40 0 45-34 45-75 0-40-5-75-45-74-42 0-51 32-51 76 0 43 10 73 51 73" id="g"/><g id="b"><use transform="matrix(0.06172839506172839,0,0,0.06172839506172839,0,0)" xlink:href="#e"/><use transform="matrix(0.06172839506172839,0,0,0.06172839506172839,15.987654320987653,0)" xlink:href="#f"/><use transform="matrix(0.06172839506172839,0,0,0.06172839506172839,28.333333333333332,0)" xlink:href="#g"/></g></defs></g></svg>