<svg xmlns="http://www.w3.org/2000/svg" xmlns:xlink="http://www.w3.org/1999/xlink" xmlns:lucid="lucid" width="6848" height="2656"><g transform="translate(-3392 0)" lucid:page-tab-id="0_0"><path d="M4620 240c-33.12 0-60 26.88-60 60 0 33.12 26.88 60 60 60 33.12 0 60-26.88 60-60 0-33.12-26.88-60-60-60z" stroke="#000" stroke-opacity="0" fill="url(#a)"/><path d="M4669.62 300c0 27.4-22.23 49.62-49.62 49.62-27.4 0-49.62-22.23-49.62-49.62 0-27.4 22.23-49.62 49.62-49.62 27.4 0 49.62 22.23 49.62 49.62z" stroke="#000" stroke-opacity="0" fill="#fff"/><path d="M4614.55 300.04c0 3-2.43 5.43-5.43 5.43-3 0-5.44-2.43-5.44-5.43 0-3 2.44-5.44 5.44-5.44 3 0 5.43 2.44 5.43 5.44z" stroke="#000" stroke-opacity="0" fill="#32bedd"/><path d="M4593.65 284.45h-2.68c-1.14 0-2.05.93-2.05 2.05v40.43c0 2.28 1.86 4.15 4.14 4.15H4632.44c1.1-.05 2-.98 1.96-2.1v-2.7c0-1.13-.9-2.06-2.05-2.06h-35.24c-.54 0-1-.42-1-.98V286.5c0-.2 0-.33-.04-.47-.23-1.12-1.32-1.82-2.4-1.58zM4636.4 300.04c0 3-2.44 5.43-5.44 5.43-3 0-5.44-2.43-5.44-5.43 0-3 2.44-5.44 5.44-5.44 3 0 5.43 2.44 5.43 5.44z" stroke="#000" stroke-opacity="0" fill="#32bedd"/><path d="M4644.1 268.92h-36.6-.03c-1.13.05-2.04.98-2 2.1v2.7c0 1.1.9 2.04 2.04 2.04h35.3c.58 0 1.03.47 1.03 1.08v36.6c0 1.1.9 2.04 2.03 2.04h2.7c1.14 0 2.04-.93 2.04-2.05v-40.37c0-2.23-1.8-4.1-4.1-4.14z" stroke="#000" stroke-opacity="0" fill="#32bedd"/><use xlink:href="#b" transform="matrix(1,0,0,1,4530,369) translate(39.55 14.4)"/><use xlink:href="#c" transform="matrix(1,0,0,1,4530,369) translate(71.55 14.4)"/><defs><radialGradient gradientUnits="userSpaceOnUse" id="a" fx="4618.29" fy="297.78" cx="4618.29" cy="297.78" r="59.72"><stop offset="67%" stop-color="#6bb9f2"/><stop offset="74%" stop-color="#61b4f1"/><stop offset="85%" stop-color="#47a8ef"/><stop offset="99%" stop-color="#1d94eb"/><stop offset="100%" stop-color="#1b93eb"/></radialGradient><path d="M160-131c35 5 61 23 61 61C221 17 115-2 30 0v-248c76 3 177-17 177 60 0 33-19 50-47 57zm-97-11c50-1 110 9 110-42 0-47-63-36-110-37v79zm0 115c55-2 124 14 124-45 0-56-70-42-124-44v89" id="d"/><path d="M100-194c62-1 85 37 85 99 1 63-27 99-86 99S16-35 15-95c0-66 28-99 85-99zM99-20c44 1 53-31 53-75 0-43-8-75-51-75s-53 32-53 75 10 74 51 75" id="e"/><path d="M59-47c-2 24 18 29 38 22v24C64 9 27 4 27-40v-127H5v-23h24l9-43h21v43h35v23H59v120" id="f"/><g id="b"><use transform="matrix(0.05,0,0,0.05,0,0)" xlink:href="#d"/><use transform="matrix(0.05,0,0,0.05,12,0)" xlink:href="#e"/><use transform="matrix(0.05,0,0,0.05,22,0)" xlink:href="#f"/></g><path d="M185-189c-5-48-123-54-124 2 14 75 158 14 163 119 3 78-121 87-175 55-17-10-28-26-33-46l33-7c5 56 141 63 141-1 0-78-155-14-162-118-5-82 145-84 179-34 5 7 8 16 11 25" id="g"/><path d="M100-194c63 0 86 42 84 106H49c0 40 14 67 53 68 26 1 43-12 49-29l28 8c-11 28-37 45-77 45C44 4 14-33 15-96c1-61 26-98 85-98zm52 81c6-60-76-77-97-28-3 7-6 17-6 28h103" id="h"/><path d="M114-163C36-179 61-72 57 0H25l-1-190h30c1 12-1 29 2 39 6-27 23-49 58-41v29" id="i"/><path d="M108 0H70L1-190h34L89-25l56-165h34" id="j"/><path d="M24-231v-30h32v30H24zM24 0v-190h32V0H24" id="k"/><path d="M96-169c-40 0-48 33-48 73s9 75 48 75c24 0 41-14 43-38l32 2c-6 37-31 61-74 61-59 0-76-41-82-99-10-93 101-131 147-64 4 7 5 14 7 22l-32 3c-4-21-16-35-41-35" id="l"/><path d="M135-143c-3-34-86-38-87 0 15 53 115 12 119 90S17 21 10-45l28-5c4 36 97 45 98 0-10-56-113-15-118-90-4-57 82-63 122-42 12 7 21 19 24 35" id="m"/><g id="c"><use transform="matrix(0.05,0,0,0.05,0,0)" xlink:href="#g"/><use transform="matrix(0.05,0,0,0.05,12,0)" xlink:href="#h"/><use transform="matrix(0.05,0,0,0.05,22,0)" xlink:href="#i"/><use transform="matrix(0.05,0,0,0.05,27.950000000000003,0)" xlink:href="#j"/><use transform="matrix(0.05,0,0,0.05,36.95,0)" xlink:href="#k"/><use transform="matrix(0.05,0,0,0.05,40.900000000000006,0)" xlink:href="#l"/><use transform="matrix(0.05,0,0,0.05,49.900000000000006,0)" xlink:href="#h"/><use transform="matrix(0.05,0,0,0.05,59.900000000000006,0)" xlink:href="#m"/></g></defs></g></svg>