<svg xmlns="http://www.w3.org/2000/svg" xmlns:xlink="http://www.w3.org/1999/xlink" xmlns:lucid="lucid" width="6848" height="2656"><g transform="translate(-3392 0)" lucid:page-tab-id="0_0"><path d="M4780.42 822.52l-35.7-20.42 35.7-19.7 35.7 19.3zm-29.14-20.38l29.14 16.53 29.06-16.97-29.06-15.6z" stroke="#000" stroke-opacity="0" fill="#669df6"/><path d="M4780.47 860.4l-35.88-22.93 35.87-19 35.3 19.2zM4751 837.7l29.47 18.83 29.04-18.57-29.03-15.8z" stroke="#000" stroke-opacity="0" fill="#669df6"/><path d="M4746.33 802.82l2.93-1.56 32.37 56.27-2.93 1.56-32.37-56.28z" stroke="#000" stroke-opacity="0" stroke-width=".88" fill="#4285f4"/><path d="M4779.2 857.84l31.63-56.08 2.93 1.5-31.62 56.08-2.94-1.5z" stroke="#000" stroke-opacity="0" stroke-width=".47" fill="#4285f4"/><path d="M4746.78 836.6l31.97-52.86 2.9 1.58-31.98 52.85-2.9-1.57z" stroke="#000" stroke-opacity="0" stroke-width=".5" fill="#4285f4"/><path d="M4779.2 785.04l2.9-1.6 32.03 53.66-2.9 1.6-32.03-53.66z" stroke="#000" stroke-opacity="0" stroke-width=".87" fill="#4285f4"/><path d="M4778.9 783.97h3.34v74.2h-3.34v-74.2zM4746.06 802.42h3.33v35.82h-3.34v-35.82zM4810.9 802.1h3.33v35.8h-3.33v-35.8z" stroke="#000" stroke-opacity="0" fill="#4285f4"/><path d="M4785.23 784.43c0 2.44-2.08 4.42-4.63 4.42-2.56 0-4.64-1.98-4.64-4.42 0-2.45 2.08-4.43 4.64-4.43 2.55 0 4.63 1.98 4.63 4.43zM4817.22 802.05c0 2.44-2.08 4.42-4.63 4.42-2.57 0-4.65-1.98-4.65-4.42 0-2.45 2.08-4.43 4.64-4.43 2.54 0 4.62 1.98 4.62 4.43zM4752.94 802.05c0 2.44-2.07 4.42-4.63 4.42-2.55 0-4.62-1.98-4.62-4.42 0-2.45 2.07-4.43 4.63-4.43 2.57 0 4.64 1.98 4.64 4.43zM4787.88 821.03c0 3.84-3.27 6.95-7.28 6.95-4.02 0-7.3-3.1-7.3-6.95 0-3.83 3.28-6.95 7.3-6.95 4 0 7.28 3.12 7.28 6.95zM4817.22 837.62c0 2.44-2.08 4.43-4.63 4.43-2.57 0-4.65-2-4.65-4.43 0-2.44 2.08-4.43 4.64-4.43 2.54 0 4.62 1.98 4.62 4.42zM4752.94 837.62c0 2.44-2.07 4.43-4.63 4.43-2.55 0-4.62-2-4.62-4.43 0-2.44 2.07-4.43 4.63-4.43 2.57 0 4.64 1.98 4.64 4.42zM4785.23 858.3c0 2.45-2.08 4.43-4.63 4.43-2.56 0-4.64-1.98-4.64-4.43 0-2.44 2.08-4.42 4.64-4.42 2.55 0 4.63 1.98 4.63 4.42z" stroke="#000" stroke-opacity="0" fill="#aecbfa"/><path d="M4780.42 822.52l-35.7-20.42 35.7-19.7 35.7 19.3zm-29.14-20.38l29.14 16.53 29.06-16.97-29.06-15.6z" stroke="#000" stroke-opacity="0" fill="#aecbfa"/><path d="M4780.47 860.4l-35.88-22.93 35.87-19 35.3 19.2zM4751 837.7l29.47 18.83 29.04-18.57-29.03-15.8z" stroke="#000" stroke-opacity="0" fill="#aecbfa"/><path d="M4746.33 802.82l2.93-1.56 32.37 56.27-2.93 1.56-32.37-56.28z" stroke="#000" stroke-opacity="0" stroke-width=".88" fill="#aecbfa"/><path d="M4779.2 857.84l31.63-56.08 2.93 1.5-31.62 56.08-2.94-1.5z" stroke="#000" stroke-opacity="0" stroke-width=".47" fill="#aecbfa"/><path d="M4746.78 836.6l31.97-52.86 2.9 1.58-31.98 52.85-2.9-1.57z" stroke="#000" stroke-opacity="0" stroke-width=".5" fill="#aecbfa"/><path d="M4779.2 785.04l2.9-1.6 32.03 53.66-2.9 1.6-32.03-53.66z" stroke="#000" stroke-opacity="0" stroke-width=".87" fill="#aecbfa"/><path d="M4778.9 783.97h3.34v74.2h-3.34v-74.2zM4746.06 802.42h3.33v35.82h-3.34v-35.82zM4810.9 802.1h3.33v35.8h-3.33v-35.8z" stroke="#000" stroke-opacity="0" fill="#aecbfa"/><path d="M4785.23 784.43c0 2.44-2.08 4.42-4.63 4.42-2.56 0-4.64-1.98-4.64-4.42 0-2.45 2.08-4.43 4.64-4.43 2.55 0 4.63 1.98 4.63 4.43zM4817.22 802.05c0 2.44-2.08 4.42-4.63 4.42-2.57 0-4.65-1.98-4.65-4.42 0-2.45 2.08-4.43 4.64-4.43 2.54 0 4.62 1.98 4.62 4.43zM4752.94 802.05c0 2.44-2.07 4.42-4.63 4.42-2.55 0-4.62-1.98-4.62-4.42 0-2.45 2.07-4.43 4.63-4.43 2.57 0 4.64 1.98 4.64 4.43zM4787.88 821.03c0 3.84-3.27 6.95-7.28 6.95-4.02 0-7.3-3.1-7.3-6.95 0-3.83 3.28-6.95 7.3-6.95 4 0 7.28 3.12 7.28 6.95zM4817.22 837.62c0 2.44-2.08 4.43-4.63 4.43-2.57 0-4.65-2-4.65-4.43 0-2.44 2.08-4.43 4.64-4.43 2.54 0 4.62 1.98 4.62 4.42zM4752.94 837.62c0 2.44-2.07 4.43-4.63 4.43-2.55 0-4.62-2-4.62-4.43 0-2.44 2.07-4.43 4.63-4.43 2.57 0 4.64 1.98 4.64 4.42zM4785.23 858.3c0 2.45-2.08 4.43-4.63 4.43-2.56 0-4.64-1.98-4.64-4.43 0-2.44 2.08-4.42 4.64-4.42 2.55 0 4.63 1.98 4.63 4.42z" stroke="#000" stroke-opacity="0" fill="#669df6"/><use xlink:href="#a" transform="matrix(1,0,0,1,4743.676184895832,867.728256730235) translate(14.469135802469136 17.77777777777778)"/><use xlink:href="#b" transform="matrix(1,0,0,1,4743.676184895832,867.728256730235) translate(-1.7962962962962905 44.44444444444444)"/><defs><path fill="#3a414a" d="M30-248c118-7 216 8 213 122C240-48 200 0 122 0H30v-248zM63-27c89 8 146-16 146-99s-60-101-146-95v194" id="c"/><path fill="#3a414a" d="M197 0v-115H63V0H30v-248h33v105h134v-105h34V0h-34" id="d"/><path fill="#3a414a" d="M127-220V0H93v-220H8v-28h204v28h-85" id="e"/><g id="a"><use transform="matrix(0.06172839506172839,0,0,0.06172839506172839,0,0)" xlink:href="#c"/><use transform="matrix(0.06172839506172839,0,0,0.06172839506172839,15.987654320987653,0)" xlink:href="#d"/><use transform="matrix(0.06172839506172839,0,0,0.06172839506172839,31.975308641975307,0)" xlink:href="#e"/></g><path fill="#3a414a" d="M185-189c-5-48-123-54-124 2 14 75 158 14 163 119 3 78-121 87-175 55-17-10-28-26-33-46l33-7c5 56 141 63 141-1 0-78-155-14-162-118-5-82 145-84 179-34 5 7 8 16 11 25" id="f"/><path fill="#3a414a" d="M205 0l-28-72H64L36 0H1l101-248h38L239 0h-34zm-38-99l-47-123c-12 45-31 82-46 123h93" id="g"/><path fill="#3a414a" d="M233-177c-1 41-23 64-60 70L243 0h-38l-65-103H63V0H30v-248c88 3 205-21 203 71zM63-129c60-2 137 13 137-47 0-61-80-42-137-45v92" id="h"/><g id="b"><use transform="matrix(0.06172839506172839,0,0,0.06172839506172839,0,0)" xlink:href="#f"/><use transform="matrix(0.06172839506172839,0,0,0.06172839506172839,14.814814814814813,0)" xlink:href="#d"/><use transform="matrix(0.06172839506172839,0,0,0.06172839506172839,30.80246913580247,0)" xlink:href="#g"/><use transform="matrix(0.06172839506172839,0,0,0.06172839506172839,45.61728395061728,0)" xlink:href="#h"/><use transform="matrix(0.06172839506172839,0,0,0.06172839506172839,61.60493827160493,0)" xlink:href="#c"/></g></defs></g></svg>