<svg xmlns="http://www.w3.org/2000/svg" xmlns:xlink="http://www.w3.org/1999/xlink" xmlns:lucid="lucid" width="6848" height="2656"><g transform="translate(-3392 0)" lucid:page-tab-id="0_0"><path d="M4322.24 476.88c-.54 0-1.08-.18-1.53-.63l-9.17-10.26 3.06-2.7 5.66 6.2v-22.4c0-.82.45-1.54 1.08-1.9l32.76-16.02c.54-.27 1.26-.27 1.8 0l32.76 16.02c.63.36 1.08 1.08 1.08 1.9v22.4l5.67-6.2 3.07 2.7-9.18 10.25c-.46.45-1 .63-1.54.63-.63 0-1.17-.18-1.53-.63l-9.27-10.26 3.06-2.7 5.67 6.2v-19.35l-28.63 12.6V484l5.58-6.3 3.06 2.78-9.17 10.17c-.36.45-1 .72-1.53.72-.54 0-1.17-.27-1.53-.72l-9.18-10.17 3.05-2.8 5.58 6.3v-21.23l-28.62-12.6v19.35l5.68-6.2 3.06 2.7-9.27 10.25c-.36.45-.9.63-1.53.63zm65.52 3.15c6.75 0 12.24 5.58 12.24 12.33s-5.5 12.24-12.24 12.24c-4.32 0-8.1-2.16-10.26-5.5l-10.62 4.6c.27 1 .36 1.98.36 2.97 0 6.84-5.5 12.33-12.24 12.33-6.75 0-12.24-5.5-12.24-12.33 0-1 .1-1.98.36-2.97l-10.62-4.6c-2.16 3.34-5.94 5.5-10.26 5.5-6.75 0-12.24-5.5-12.24-12.24 0-6.75 5.5-12.33 12.24-12.33 6.84 0 12.33 5.58 12.33 12.33 0 1-.18 1.98-.45 2.97l10.62 4.68c2.16-3.32 5.94-5.57 10.26-5.57 4.32 0 8.1 2.25 10.26 5.58l10.62-4.67c-.27-1-.45-1.98-.45-2.97 0-6.75 5.5-12.33 12.33-12.33zm-32.76-46.7l-27.9 13.58 27.9 12.25 27.9-12.24zm32.76 67.22c4.5 0 8.2-3.7 8.2-8.2 0-4.5-3.7-8.18-8.2-8.18-4.5 0-8.2 3.7-8.2 8.2 0 4.5 3.7 8.18 8.2 8.18zm-65.52 0c4.6 0 8.2-3.7 8.2-8.2 0-4.5-3.6-8.18-8.2-8.18-4.5 0-8.2 3.7-8.2 8.2 0 4.5 3.7 8.18 8.2 8.18zm32.76 14.3c4.5 0 8.2-3.6 8.2-8.18 0-4.5-3.7-8.2-8.2-8.2-4.5 0-8.2 3.7-8.2 8.2 0 4.6 3.7 8.2 8.2 8.2z" stroke="#000" stroke-opacity="0" fill="#4c535d"/><path d="M4322.5 447.63h65.26v46.8h-65.25v-46.8z" stroke="#000" stroke-opacity="0" fill-opacity="0"/><use xlink:href="#a" transform="matrix(1,0,0,1,4280,528) translate(24.625 14.4)"/><defs><path d="M240 0l2-218c-23 76-54 145-80 218h-23L58-218 59 0H30v-248h44l77 211c21-75 51-140 76-211h43V0h-30" id="b"/><path d="M24-231v-30h32v30H24zM24 0v-190h32V0H24" id="c"/><path d="M96-169c-40 0-48 33-48 73s9 75 48 75c24 0 41-14 43-38l32 2c-6 37-31 61-74 61-59 0-76-41-82-99-10-93 101-131 147-64 4 7 5 14 7 22l-32 3c-4-21-16-35-41-35" id="d"/><path d="M114-163C36-179 61-72 57 0H25l-1-190h30c1 12-1 29 2 39 6-27 23-49 58-41v29" id="e"/><path d="M100-194c62-1 85 37 85 99 1 63-27 99-86 99S16-35 15-95c0-66 28-99 85-99zM99-20c44 1 53-31 53-75 0-43-8-75-51-75s-53 32-53 75 10 74 51 75" id="f"/><path d="M135-143c-3-34-86-38-87 0 15 53 115 12 119 90S17 21 10-45l28-5c4 36 97 45 98 0-10-56-113-15-118-90-4-57 82-63 122-42 12 7 21 19 24 35" id="g"/><path d="M100-194c63 0 86 42 84 106H49c0 40 14 67 53 68 26 1 43-12 49-29l28 8c-11 28-37 45-77 45C44 4 14-33 15-96c1-61 26-98 85-98zm52 81c6-60-76-77-97-28-3 7-6 17-6 28h103" id="h"/><path d="M108 0H70L1-190h34L89-25l56-165h34" id="i"/><g id="a"><use transform="matrix(0.05,0,0,0.05,0,0)" xlink:href="#b"/><use transform="matrix(0.05,0,0,0.05,14.950000000000001,0)" xlink:href="#c"/><use transform="matrix(0.05,0,0,0.05,18.900000000000002,0)" xlink:href="#d"/><use transform="matrix(0.05,0,0,0.05,27.900000000000002,0)" xlink:href="#e"/><use transform="matrix(0.05,0,0,0.05,33.85,0)" xlink:href="#f"/><use transform="matrix(0.05,0,0,0.05,43.85,0)" xlink:href="#g"/><use transform="matrix(0.05,0,0,0.05,52.85,0)" xlink:href="#h"/><use transform="matrix(0.05,0,0,0.05,62.85,0)" xlink:href="#e"/><use transform="matrix(0.05,0,0,0.05,68.8,0)" xlink:href="#i"/><use transform="matrix(0.05,0,0,0.05,77.8,0)" xlink:href="#c"/><use transform="matrix(0.05,0,0,0.05,81.75,0)" xlink:href="#d"/><use transform="matrix(0.05,0,0,0.05,90.75,0)" xlink:href="#h"/></g></defs></g></svg>