<svg xmlns="http://www.w3.org/2000/svg" xmlns:xlink="http://www.w3.org/1999/xlink" xmlns:lucid="lucid" width="6848" height="2656"><g transform="translate(-3392 0)" lucid:page-tab-id="0_0"><path d="M4884 220h64v64h-64zm28.54 43.26l18.18-18.1-5.12-5.13-12.8 12.8-6.4-6.4-5.12 5.12z" stroke="#000" stroke-opacity="0" fill="#aecbfa"/><path d="M4820 296.8V348h51.2v-51.2zm38.4 38.4h-25.6v-25.6h25.6zM4884 284h64v-12.6l-51.2-.2L4884 284z" stroke="#000" stroke-opacity="0" fill="#4285f4"/><path d="M4935.2 232.8v38.53L4948 284v-64l-12.8 12.8z" stroke="#000" stroke-opacity="0" fill="#669df6"/><path d="M4871.2 348l-12.8-12.8v-25.6l12.8-12.8V348z" stroke="#000" stroke-opacity="0" fill="#aecbfa"/><path d="M4820 348l12.8-12.8h25.6l12.8 12.8H4820z" stroke="#000" stroke-opacity="0" fill="#669df6"/><path d="M4820 232.8V284h51.2v-51.2zm38.4 38.4h-25.6v-25.6h25.6z" stroke="#000" stroke-opacity="0" fill="#4285f4"/><path d="M4871.2 284l-12.8-12.8v-25.6l12.8-12.8V284z" stroke="#000" stroke-opacity="0" fill="#aecbfa"/><path d="M4820 284l12.8-12.8h25.6l12.8 12.8H4820z" stroke="#000" stroke-opacity="0" fill="#669df6"/><path d="M4884 296.8V348h51.2v-51.2zm38.4 38.4h-25.6v-25.6h25.6z" stroke="#000" stroke-opacity="0" fill="#4285f4"/><path d="M4935.2 348l-12.8-12.8v-25.6l12.8-12.8V348z" stroke="#000" stroke-opacity="0" fill="#aecbfa"/><path d="M4884 348l12.8-12.8h25.6l12.8 12.8H4884z" stroke="#000" stroke-opacity="0" fill="#669df6"/><path d="M4820 232.8V348h115.2V232.8z" stroke="#000" stroke-opacity="0" fill-opacity="0"/><use xlink:href="#a" transform="matrix(1,0,0,1,4820,353) translate(-28.469135802469125 17.77777777777778)"/><use xlink:href="#b" transform="matrix(1,0,0,1,4820,353) translate(53.50617283950618 44.44444444444444)"/><defs><path fill="#3a414a" d="M233-177c-1 41-23 64-60 70L243 0h-38l-65-103H63V0H30v-248c88 3 205-21 203 71zM63-129c60-2 137 13 137-47 0-61-80-42-137-45v92" id="c"/><path fill="#3a414a" d="M100-194c63 0 86 42 84 106H49c0 40 14 67 53 68 26 1 43-12 49-29l28 8c-11 28-37 45-77 45C44 4 14-33 15-96c1-61 26-98 85-98zm52 81c6-60-76-77-97-28-3 7-6 17-6 28h103" id="d"/><path fill="#3a414a" d="M96-169c-40 0-48 33-48 73s9 75 48 75c24 0 41-14 43-38l32 2c-6 37-31 61-74 61-59 0-76-41-82-99-10-93 101-131 147-64 4 7 5 14 7 22l-32 3c-4-21-16-35-41-35" id="e"/><path fill="#3a414a" d="M100-194c62-1 85 37 85 99 1 63-27 99-86 99S16-35 15-95c0-66 28-99 85-99zM99-20c44 1 53-31 53-75 0-43-8-75-51-75s-53 32-53 75 10 74 51 75" id="f"/><path fill="#3a414a" d="M210-169c-67 3-38 105-44 169h-31v-121c0-29-5-50-35-48C34-165 62-65 56 0H25l-1-190h30c1 10-1 24 2 32 10-44 99-50 107 0 11-21 27-35 58-36 85-2 47 119 55 194h-31v-121c0-29-5-49-35-48" id="g"/><path fill="#3a414a" d="M117-194c89-4 53 116 60 194h-32v-121c0-31-8-49-39-48C34-167 62-67 57 0H25l-1-190h30c1 10-1 24 2 32 11-22 29-35 61-36" id="h"/><path fill="#3a414a" d="M85-194c31 0 48 13 60 33l-1-100h32l1 261h-30c-2-10 0-23-3-31C134-8 116 4 85 4 32 4 16-35 15-94c0-66 23-100 70-100zm9 24c-40 0-46 34-46 75 0 40 6 74 45 74 42 0 51-32 51-76 0-42-9-74-50-73" id="i"/><path fill="#3a414a" d="M141-36C126-15 110 5 73 4 37 3 15-17 15-53c-1-64 63-63 125-63 3-35-9-54-41-54-24 1-41 7-42 31l-33-3c5-37 33-52 76-52 45 0 72 20 72 64v82c-1 20 7 32 28 27v20c-31 9-61-2-59-35zM48-53c0 20 12 33 32 33 41-3 63-29 60-74-43 2-92-5-92 41" id="j"/><path fill="#3a414a" d="M59-47c-2 24 18 29 38 22v24C64 9 27 4 27-40v-127H5v-23h24l9-43h21v43h35v23H59v120" id="k"/><path fill="#3a414a" d="M24-231v-30h32v30H24zM24 0v-190h32V0H24" id="l"/><path fill="#3a414a" d="M135-143c-3-34-86-38-87 0 15 53 115 12 119 90S17 21 10-45l28-5c4 36 97 45 98 0-10-56-113-15-118-90-4-57 82-63 122-42 12 7 21 19 24 35" id="m"/><g id="a"><use transform="matrix(0.06172839506172839,0,0,0.06172839506172839,0,0)" xlink:href="#c"/><use transform="matrix(0.06172839506172839,0,0,0.06172839506172839,15.987654320987653,0)" xlink:href="#d"/><use transform="matrix(0.06172839506172839,0,0,0.06172839506172839,28.333333333333332,0)" xlink:href="#e"/><use transform="matrix(0.06172839506172839,0,0,0.06172839506172839,39.44444444444444,0)" xlink:href="#f"/><use transform="matrix(0.06172839506172839,0,0,0.06172839506172839,51.79012345679012,0)" xlink:href="#g"/><use transform="matrix(0.06172839506172839,0,0,0.06172839506172839,70.24691358024691,0)" xlink:href="#g"/><use transform="matrix(0.06172839506172839,0,0,0.06172839506172839,88.7037037037037,0)" xlink:href="#d"/><use transform="matrix(0.06172839506172839,0,0,0.06172839506172839,101.04938271604938,0)" xlink:href="#h"/><use transform="matrix(0.06172839506172839,0,0,0.06172839506172839,113.39506172839506,0)" xlink:href="#i"/><use transform="matrix(0.06172839506172839,0,0,0.06172839506172839,125.74074074074075,0)" xlink:href="#j"/><use transform="matrix(0.06172839506172839,0,0,0.06172839506172839,138.08641975308643,0)" xlink:href="#k"/><use transform="matrix(0.06172839506172839,0,0,0.06172839506172839,144.25925925925927,0)" xlink:href="#l"/><use transform="matrix(0.06172839506172839,0,0,0.06172839506172839,149.1358024691358,0)" xlink:href="#f"/><use transform="matrix(0.06172839506172839,0,0,0.06172839506172839,161.48148148148147,0)" xlink:href="#h"/><use transform="matrix(0.06172839506172839,0,0,0.06172839506172839,173.82716049382714,0)" xlink:href="#m"/></g><path fill="#3a414a" d="M205 0l-28-72H64L36 0H1l101-248h38L239 0h-34zm-38-99l-47-123c-12 45-31 82-46 123h93" id="n"/><path fill="#3a414a" d="M33 0v-248h34V0H33" id="o"/><g id="b"><use transform="matrix(0.06172839506172839,0,0,0.06172839506172839,0,0)" xlink:href="#n"/><use transform="matrix(0.06172839506172839,0,0,0.06172839506172839,14.814814814814813,0)" xlink:href="#o"/></g></defs></g></svg>